<mxfile modified="2021-11-01T20:36:43.439Z" host="app.diagrams.net" agent="5.0 (Windows NT 10.0; Win64; x64) AppleWebKit/537.36 (KHTML, like Gecko) Chrome/95.0.4638.69 Safari/537.36" etag="BFLMaEgwgEj9U0w4cEP6" version="15.6.4" type="github">
  <diagram id="Ht1M8jgEwFfnCIfOTk4-" name="Page-1">
    <mxGraphModel dx="1102" dy="582" grid="1" gridSize="10" guides="1" tooltips="1" connect="1" arrows="1" fold="1" page="1" pageScale="1" pageWidth="1169" pageHeight="827" math="0" shadow="0">
      <root>
        <mxCell id="0" />
        <mxCell id="1" parent="0" />
        <mxCell id="crCRXeqCQ2BMxCe1zYz7-40" style="edgeStyle=orthogonalEdgeStyle;rounded=0;orthogonalLoop=1;jettySize=auto;html=1;entryX=0;entryY=0.5;entryDx=0;entryDy=0;labelBackgroundColor=default;fontColor=default;strokeColor=default;" edge="1" parent="1" source="crCRXeqCQ2BMxCe1zYz7-1" target="crCRXeqCQ2BMxCe1zYz7-10">
          <mxGeometry relative="1" as="geometry" />
        </mxCell>
        <mxCell id="crCRXeqCQ2BMxCe1zYz7-1" value="" style="sketch=0;points=[[0,0,0],[0.25,0,0],[0.5,0,0],[0.75,0,0],[1,0,0],[0,1,0],[0.25,1,0],[0.5,1,0],[0.75,1,0],[1,1,0],[0,0.25,0],[0,0.5,0],[0,0.75,0],[1,0.25,0],[1,0.5,0],[1,0.75,0]];outlineConnect=0;fontColor=#232F3E;gradientColor=#F78E04;gradientDirection=north;fillColor=#D05C17;strokeColor=#ffffff;dashed=0;verticalLabelPosition=bottom;verticalAlign=top;align=center;html=1;fontSize=12;fontStyle=0;aspect=fixed;shape=mxgraph.aws4.resourceIcon;resIcon=mxgraph.aws4.eks;" vertex="1" parent="1">
          <mxGeometry x="220" y="283.25" width="78" height="78" as="geometry" />
        </mxCell>
        <mxCell id="crCRXeqCQ2BMxCe1zYz7-41" style="edgeStyle=orthogonalEdgeStyle;rounded=0;orthogonalLoop=1;jettySize=auto;html=1;entryX=1;entryY=0.5;entryDx=0;entryDy=0;entryPerimeter=0;labelBackgroundColor=default;fontColor=default;strokeColor=default;" edge="1" parent="1" source="crCRXeqCQ2BMxCe1zYz7-10" target="crCRXeqCQ2BMxCe1zYz7-1">
          <mxGeometry relative="1" as="geometry" />
        </mxCell>
        <mxCell id="crCRXeqCQ2BMxCe1zYz7-10" value="" style="rounded=1;whiteSpace=wrap;html=1;fillColor=default;strokeColor=default;fontColor=default;" vertex="1" parent="1">
          <mxGeometry x="604" y="230" width="316" height="400" as="geometry" />
        </mxCell>
        <mxCell id="crCRXeqCQ2BMxCe1zYz7-26" style="edgeStyle=orthogonalEdgeStyle;rounded=0;orthogonalLoop=1;jettySize=auto;html=1;entryX=0.5;entryY=0;entryDx=0;entryDy=0;labelBackgroundColor=default;fontColor=default;strokeColor=default;" edge="1" parent="1" source="crCRXeqCQ2BMxCe1zYz7-14" target="crCRXeqCQ2BMxCe1zYz7-15">
          <mxGeometry relative="1" as="geometry" />
        </mxCell>
        <mxCell id="crCRXeqCQ2BMxCe1zYz7-28" style="edgeStyle=orthogonalEdgeStyle;rounded=0;orthogonalLoop=1;jettySize=auto;html=1;labelBackgroundColor=default;fontColor=default;strokeColor=default;" edge="1" parent="1" source="crCRXeqCQ2BMxCe1zYz7-14" target="crCRXeqCQ2BMxCe1zYz7-17">
          <mxGeometry relative="1" as="geometry" />
        </mxCell>
        <mxCell id="crCRXeqCQ2BMxCe1zYz7-14" value="" style="rounded=1;whiteSpace=wrap;html=1;strokeColor=#d6b656;fillColor=#fff2cc;fontColor=default;" vertex="1" parent="1">
          <mxGeometry x="800" y="300" width="80" height="77" as="geometry" />
        </mxCell>
        <mxCell id="crCRXeqCQ2BMxCe1zYz7-12" value="" style="sketch=0;points=[[0,0,0],[0.25,0,0],[0.5,0,0],[0.75,0,0],[1,0,0],[0,1,0],[0.25,1,0],[0.5,1,0],[0.75,1,0],[1,1,0],[0,0.25,0],[0,0.5,0],[0,0.75,0],[1,0.25,0],[1,0.5,0],[1,0.75,0]];outlineConnect=0;fontColor=default;gradientColor=#F78E04;gradientDirection=north;fillColor=#D05C17;strokeColor=#ffffff;dashed=0;verticalLabelPosition=bottom;verticalAlign=top;align=center;html=1;fontSize=12;fontStyle=0;aspect=fixed;shape=mxgraph.aws4.resourceIcon;resIcon=mxgraph.aws4.compute;" vertex="1" parent="1">
          <mxGeometry x="816" y="314.5" width="48" height="48" as="geometry" />
        </mxCell>
        <mxCell id="crCRXeqCQ2BMxCe1zYz7-25" style="edgeStyle=orthogonalEdgeStyle;rounded=0;orthogonalLoop=1;jettySize=auto;html=1;labelBackgroundColor=default;fontColor=default;strokeColor=default;" edge="1" parent="1" source="crCRXeqCQ2BMxCe1zYz7-15" target="crCRXeqCQ2BMxCe1zYz7-17">
          <mxGeometry relative="1" as="geometry" />
        </mxCell>
        <mxCell id="crCRXeqCQ2BMxCe1zYz7-27" style="edgeStyle=orthogonalEdgeStyle;rounded=0;orthogonalLoop=1;jettySize=auto;html=1;labelBackgroundColor=default;fontColor=default;strokeColor=default;" edge="1" parent="1" source="crCRXeqCQ2BMxCe1zYz7-15" target="crCRXeqCQ2BMxCe1zYz7-14">
          <mxGeometry relative="1" as="geometry" />
        </mxCell>
        <mxCell id="crCRXeqCQ2BMxCe1zYz7-15" value="" style="rounded=1;whiteSpace=wrap;html=1;strokeColor=#d6b656;fillColor=#fff2cc;fontColor=default;" vertex="1" parent="1">
          <mxGeometry x="800" y="433" width="80" height="77" as="geometry" />
        </mxCell>
        <mxCell id="crCRXeqCQ2BMxCe1zYz7-16" value="" style="sketch=0;points=[[0,0,0],[0.25,0,0],[0.5,0,0],[0.75,0,0],[1,0,0],[0,1,0],[0.25,1,0],[0.5,1,0],[0.75,1,0],[1,1,0],[0,0.25,0],[0,0.5,0],[0,0.75,0],[1,0.25,0],[1,0.5,0],[1,0.75,0]];outlineConnect=0;fontColor=default;gradientColor=#F78E04;gradientDirection=north;fillColor=#D05C17;strokeColor=#ffffff;dashed=0;verticalLabelPosition=bottom;verticalAlign=top;align=center;html=1;fontSize=12;fontStyle=0;aspect=fixed;shape=mxgraph.aws4.resourceIcon;resIcon=mxgraph.aws4.compute;" vertex="1" parent="1">
          <mxGeometry x="816" y="447.5" width="48" height="48" as="geometry" />
        </mxCell>
        <mxCell id="crCRXeqCQ2BMxCe1zYz7-24" style="edgeStyle=orthogonalEdgeStyle;rounded=0;orthogonalLoop=1;jettySize=auto;html=1;labelBackgroundColor=default;fontColor=default;strokeColor=default;" edge="1" parent="1" source="crCRXeqCQ2BMxCe1zYz7-17" target="crCRXeqCQ2BMxCe1zYz7-15">
          <mxGeometry relative="1" as="geometry" />
        </mxCell>
        <mxCell id="crCRXeqCQ2BMxCe1zYz7-30" style="edgeStyle=orthogonalEdgeStyle;rounded=0;orthogonalLoop=1;jettySize=auto;html=1;labelBackgroundColor=default;fontColor=default;strokeColor=default;" edge="1" parent="1" source="crCRXeqCQ2BMxCe1zYz7-17">
          <mxGeometry relative="1" as="geometry">
            <mxPoint x="800" y="338" as="targetPoint" />
            <Array as="points">
              <mxPoint x="670" y="338" />
              <mxPoint x="800" y="338" />
            </Array>
          </mxGeometry>
        </mxCell>
        <mxCell id="crCRXeqCQ2BMxCe1zYz7-17" value="" style="rounded=1;whiteSpace=wrap;html=1;strokeColor=#d6b656;fillColor=#fff2cc;fontColor=default;" vertex="1" parent="1">
          <mxGeometry x="630" y="433" width="80" height="77" as="geometry" />
        </mxCell>
        <mxCell id="crCRXeqCQ2BMxCe1zYz7-18" value="" style="sketch=0;points=[[0,0,0],[0.25,0,0],[0.5,0,0],[0.75,0,0],[1,0,0],[0,1,0],[0.25,1,0],[0.5,1,0],[0.75,1,0],[1,1,0],[0,0.25,0],[0,0.5,0],[0,0.75,0],[1,0.25,0],[1,0.5,0],[1,0.75,0]];outlineConnect=0;fontColor=default;gradientColor=#F78E04;gradientDirection=north;fillColor=#D05C17;strokeColor=#ffffff;dashed=0;verticalLabelPosition=bottom;verticalAlign=top;align=center;html=1;fontSize=12;fontStyle=0;aspect=fixed;shape=mxgraph.aws4.resourceIcon;resIcon=mxgraph.aws4.compute;" vertex="1" parent="1">
          <mxGeometry x="646" y="447.5" width="48" height="48" as="geometry" />
        </mxCell>
        <mxCell id="crCRXeqCQ2BMxCe1zYz7-31" value="" style="rounded=1;whiteSpace=wrap;html=1;strokeColor=#d6b656;fillColor=#fff2cc;fontColor=default;" vertex="1" parent="1">
          <mxGeometry x="1020" y="237.5" width="80" height="77" as="geometry" />
        </mxCell>
        <mxCell id="crCRXeqCQ2BMxCe1zYz7-32" value="" style="sketch=0;points=[[0,0,0],[0.25,0,0],[0.5,0,0],[0.75,0,0],[1,0,0],[0,1,0],[0.25,1,0],[0.5,1,0],[0.75,1,0],[1,1,0],[0,0.25,0],[0,0.5,0],[0,0.75,0],[1,0.25,0],[1,0.5,0],[1,0.75,0]];outlineConnect=0;fontColor=default;gradientColor=#F78E04;gradientDirection=north;fillColor=#D05C17;strokeColor=#ffffff;dashed=0;verticalLabelPosition=bottom;verticalAlign=top;align=center;html=1;fontSize=12;fontStyle=0;aspect=fixed;shape=mxgraph.aws4.resourceIcon;resIcon=mxgraph.aws4.compute;" vertex="1" parent="1">
          <mxGeometry x="1036" y="252" width="48" height="48" as="geometry" />
        </mxCell>
        <mxCell id="crCRXeqCQ2BMxCe1zYz7-36" value="" style="rounded=1;whiteSpace=wrap;html=1;fillColor=none;strokeColor=default;fontColor=default;" vertex="1" parent="1">
          <mxGeometry x="622" y="260" width="280" height="340" as="geometry" />
        </mxCell>
        <mxCell id="crCRXeqCQ2BMxCe1zYz7-33" value="Kubernetes Pod with EC2 intance attached" style="text;html=1;strokeColor=none;fillColor=none;align=center;verticalAlign=middle;whiteSpace=wrap;rounded=0;fontColor=default;" vertex="1" parent="1">
          <mxGeometry x="1012" y="315.75" width="96" height="45.5" as="geometry" />
        </mxCell>
        <mxCell id="crCRXeqCQ2BMxCe1zYz7-34" value="EC2 cluster" style="text;html=1;strokeColor=none;fillColor=none;align=center;verticalAlign=middle;whiteSpace=wrap;rounded=0;fontColor=default;" vertex="1" parent="1">
          <mxGeometry x="732" y="600" width="60" height="30" as="geometry" />
        </mxCell>
        <mxCell id="crCRXeqCQ2BMxCe1zYz7-37" value="Kubernetes Service" style="text;html=1;strokeColor=none;fillColor=none;align=center;verticalAlign=middle;whiteSpace=wrap;rounded=0;fontColor=default;" vertex="1" parent="1">
          <mxGeometry x="732" y="570" width="60" height="30" as="geometry" />
        </mxCell>
        <mxCell id="crCRXeqCQ2BMxCe1zYz7-38" value="Kubernetes Pod" style="text;html=1;strokeColor=none;fillColor=none;align=center;verticalAlign=middle;whiteSpace=wrap;rounded=0;fontColor=default;" vertex="1" parent="1">
          <mxGeometry x="810" y="510" width="60" height="30" as="geometry" />
        </mxCell>
        <mxCell id="crCRXeqCQ2BMxCe1zYz7-39" value="Kubernetes API" style="text;html=1;strokeColor=none;fillColor=none;align=center;verticalAlign=middle;whiteSpace=wrap;rounded=0;fontColor=default;" vertex="1" parent="1">
          <mxGeometry x="229" y="377" width="60" height="30" as="geometry" />
        </mxCell>
      </root>
    </mxGraphModel>
  </diagram>
</mxfile>
